<?xml version="1.0" standalone="no"?>
<!DOCTYPE svg PUBLIC "-//W3C//DTD SVG 20010904//EN"
 "http://www.w3.org/TR/2001/REC-SVG-20010904/DTD/svg10.dtd">
<svg version="1.0" xmlns="http://www.w3.org/2000/svg"
 width="1560.000000pt" height="1560.000000pt" viewBox="0 0 1560.000000 1560.000000"
 preserveAspectRatio="xMidYMid meet">
<metadata>
Created by potrace 1.11, written by Peter Selinger 2001-2013
</metadata>
<g transform="translate(0.000000,1560.000000) scale(0.100000,-0.100000)"
fill="#000000" stroke="none">
<path d="M9035 12323 c-10 -56 -5 -297 8 -358 3 -11 7 -41 11 -66 11 -73 14
-89 41 -184 14 -49 28 -98 30 -108 2 -9 7 -23 12 -30 4 -6 8 -19 10 -27 6 -40
127 -305 144 -316 5 -3 9 -12 9 -20 0 -8 4 -20 10 -27 5 -7 33 -48 62 -92 51
-78 145 -202 180 -237 10 -10 16 -18 14 -18 -4 0 82 -86 145 -146 58 -53 172
-141 240 -184 30 -19 56 -37 59 -40 14 -15 266 -140 282 -140 8 0 18 -4 23 -9
9 -8 112 -48 145 -56 8 -2 49 -13 90 -25 41 -12 86 -23 99 -26 160 -33 387
-114 407 -145 3 -6 14 -13 24 -17 35 -14 123 -97 165 -157 51 -73 90 -168 103
-253 13 -89 7 -238 -13 -332 -3 -14 -7 -34 -9 -45 -2 -11 -9 -32 -15 -47 -6
-16 -9 -28 -6 -28 2 0 -6 -28 -19 -62 -12 -35 -24 -67 -25 -73 -14 -46 -64
-161 -106 -245 l-46 -91 32 17 c59 30 296 179 309 194 3 3 30 24 60 45 52 38
69 51 110 85 9 8 39 33 65 55 27 22 100 92 164 155 97 96 109 106 76 60 -22
-30 -42 -57 -45 -60 -4 -3 -24 -28 -46 -55 -86 -110 -270 -296 -371 -375 -10
-8 -39 -31 -63 -51 -25 -20 -85 -66 -135 -103 -49 -37 -98 -74 -108 -82 -9 -8
-19 -14 -21 -14 -3 0 -40 -25 -84 -55 -44 -30 -85 -55 -90 -55 -6 0 -12 -4
-14 -9 -5 -14 -259 -157 -402 -226 -187 -91 -472 -203 -586 -231 -8 -2 -40
-10 -70 -19 -30 -9 -64 -17 -75 -19 -11 -2 -40 -8 -65 -14 -25 -6 -56 -13 -70
-15 -14 -3 -41 -8 -60 -12 -19 -3 -48 -8 -65 -10 -16 -2 -30 -4 -30 -5 0 -2
-5 -2 -145 -16 -157 -16 -543 -9 -643 12 -12 2 -38 7 -57 9 -19 3 -66 12 -105
20 -38 9 -79 17 -90 19 -11 3 -47 12 -80 21 -33 9 -67 18 -75 20 -8 2 -55 18
-105 35 -49 18 -107 37 -127 43 -21 6 -38 15 -38 19 0 4 -7 8 -15 8 -20 0
-224 97 -337 160 -194 110 -431 276 -603 424 -38 33 -79 67 -89 76 -42 34
-337 330 -403 405 -106 119 -113 127 -142 165 -14 19 -33 42 -41 50 -29 31
-60 70 -60 75 0 3 -8 13 -17 23 -10 10 -27 31 -38 46 -11 16 -25 33 -30 40 -6
6 -26 31 -45 56 -18 25 -41 52 -49 61 -9 9 -29 34 -46 54 -131 163 -379 424
-551 580 -42 39 -84 77 -93 85 -9 8 -41 35 -71 60 -30 25 -60 50 -66 55 -6 6
-47 37 -90 70 -43 33 -81 63 -84 66 -11 14 -350 239 -350 233 0 -4 -8 0 -18 9
-47 43 -502 270 -566 283 -10 2 -23 7 -30 12 -25 20 -424 147 -492 156 -11 2
-25 5 -30 8 -5 4 -27 9 -49 12 -22 4 -85 15 -140 26 -55 10 -127 22 -160 25
-33 4 -76 8 -95 11 -193 23 -626 23 -760 0 -14 -3 -54 -7 -89 -10 -35 -4 -73
-8 -85 -11 -11 -3 -37 -7 -56 -10 -19 -2 -46 -7 -60 -9 -42 -9 -73 -16 -110
-22 -56 -10 -257 -63 -365 -96 -217 -66 -519 -196 -719 -310 -101 -57 -278
-168 -286 -180 -3 -4 -24 -20 -47 -35 -149 -102 -334 -282 -421 -410 -57 -83
-94 -166 -99 -224 -4 -46 -2 -49 19 -50 13 0 37 -2 53 -4 17 -2 53 -6 80 -9
28 -3 64 -8 80 -10 168 -23 406 -61 510 -81 17 -3 53 -10 80 -15 47 -9 73 -14
120 -24 11 -3 52 -11 90 -20 39 -8 126 -29 195 -46 69 -17 134 -32 145 -35 11
-2 36 -9 55 -15 19 -6 44 -13 56 -15 50 -11 448 -134 499 -154 26 -11 73 -29
225 -86 139 -53 152 -58 263 -109 44 -20 81 -36 84 -36 3 0 68 -31 144 -70 77
-38 143 -70 147 -70 4 0 18 16 32 34 22 30 87 79 108 82 4 0 15 4 25 9 23 10
123 12 157 3 73 -19 144 -80 181 -155 31 -64 32 -167 2 -234 -86 -191 -354
-224 -481 -58 -30 40 -55 101 -56 141 -1 19 -64 70 -77 62 -5 -3 -9 -1 -9 4 0
9 -271 147 -373 191 l-48 21 3 -201 c1 -110 6 -203 10 -205 5 -3 4 -13 -2 -23
-5 -10 -7 -20 -5 -22 2 -3 7 -44 10 -93 4 -48 8 -96 10 -105 1 -9 6 -45 9 -81
4 -36 11 -90 16 -120 6 -30 12 -68 14 -85 2 -16 6 -46 10 -65 3 -19 8 -46 10
-60 3 -14 10 -50 16 -80 6 -30 13 -66 16 -80 2 -14 9 -44 14 -67 6 -24 14 -62
20 -85 5 -24 12 -54 15 -68 2 -14 18 -77 35 -140 20 -76 32 -147 35 -208 2
-52 7 -126 10 -165 4 -40 8 -90 10 -112 2 -22 6 -58 9 -80 3 -22 8 -60 11 -85
3 -25 10 -71 15 -102 6 -32 12 -68 14 -80 2 -13 7 -39 10 -58 3 -19 8 -46 10
-60 6 -37 55 -259 67 -305 6 -22 15 -56 20 -75 6 -19 12 -42 13 -50 2 -8 5
-22 8 -30 3 -8 11 -33 16 -55 14 -51 71 -235 79 -255 3 -8 7 -19 9 -25 4 -19
75 -210 88 -240 7 -16 33 -77 57 -135 62 -151 187 -399 272 -542 67 -113 165
-266 177 -278 3 -3 30 -39 60 -80 30 -41 59 -80 65 -86 5 -6 26 -31 45 -54 43
-54 137 -155 211 -229 52 -52 119 -112 216 -191 38 -31 230 -168 268 -190 22
-13 42 -28 43 -32 2 -4 8 -8 14 -8 5 0 22 -8 36 -19 76 -53 370 -200 542 -271
58 -23 119 -48 135 -55 17 -7 80 -30 140 -50 61 -20 119 -40 130 -45 18 -8 64
-19 82 -21 5 0 14 -5 21 -11 6 -6 12 -7 12 -4 0 4 8 2 19 -3 10 -6 31 -13 47
-15 16 -3 45 -11 64 -17 19 -6 71 -19 115 -30 44 -11 88 -22 98 -24 16 -5 25
-7 87 -20 41 -9 71 -15 150 -30 41 -8 86 -17 100 -20 49 -10 112 -20 185 -30
28 -3 57 -8 65 -10 8 -2 41 -7 73 -10 32 -4 68 -8 80 -11 12 -2 54 -6 92 -9
39 -3 79 -8 90 -10 110 -22 772 -28 843 -7 36 11 42 16 42 41 0 40 -35 68
-125 100 -34 12 -217 60 -255 68 -14 2 -34 8 -45 13 -11 4 -63 22 -115 40
-355 119 -687 353 -910 640 -19 25 -37 47 -41 50 -17 14 -117 173 -159 254
-60 115 -131 316 -156 439 -2 10 -6 26 -8 35 -3 9 -8 37 -11 62 -3 25 -8 53
-11 64 -3 10 -8 36 -10 57 -6 56 -12 108 -18 154 -2 22 -7 69 -11 105 -3 36
-8 83 -10 105 -2 22 -7 72 -10 110 -4 39 -8 86 -10 105 -17 160 -16 154 -29
235 -3 17 -8 50 -11 75 -3 25 -8 52 -11 61 -3 10 -6 30 -8 45 -11 82 -93 368
-133 464 -3 8 -7 20 -8 26 -3 11 -24 61 -84 199 -14 33 -51 112 -83 175 -52
106 -53 115 -6 49 71 -97 98 -139 98 -147 0 -6 3 -12 8 -14 4 -1 29 -39 55
-83 27 -44 53 -87 58 -95 5 -8 12 -22 15 -30 4 -8 17 -38 30 -65 23 -52 73
-179 79 -205 3 -8 18 -64 34 -124 17 -60 33 -128 37 -150 3 -22 7 -43 9 -46 2
-3 6 -24 9 -46 4 -22 9 -51 11 -64 3 -14 7 -45 10 -70 3 -25 8 -58 12 -75 4
-16 7 -39 8 -50 1 -11 5 -40 8 -65 3 -25 9 -72 13 -105 3 -33 8 -69 10 -80 2
-11 6 -40 9 -65 3 -25 8 -58 10 -75 3 -16 7 -50 10 -75 3 -25 10 -70 16 -100
7 -30 13 -62 13 -70 7 -59 20 -117 28 -127 6 -7 8 -13 5 -13 -3 0 2 -26 10
-57 8 -32 16 -65 18 -73 2 -8 15 -49 29 -90 15 -41 27 -79 29 -84 9 -38 116
-239 168 -316 56 -83 206 -248 279 -304 71 -56 158 -116 167 -116 6 0 16 -7
23 -15 7 -9 29 -23 49 -32 20 -9 39 -21 42 -26 8 -11 139 -3 264 18 49 8 91
12 94 10 2 -3 10 0 18 6 7 6 13 9 13 5 0 -3 12 -1 26 4 18 7 23 7 18 -2 -4 -6
-3 -8 4 -4 9 5 190 44 292 62 14 3 33 7 42 10 9 3 26 7 38 9 13 2 68 16 124
31 55 14 108 28 116 30 44 10 195 56 265 79 44 15 85 28 90 29 6 2 17 6 25 9
8 3 49 18 90 33 105 38 333 131 410 167 36 17 67 31 70 32 9 1 223 110 285
145 122 67 141 78 205 115 63 37 335 212 355 228 6 4 44 33 85 62 41 30 80 58
85 62 6 5 42 33 80 63 39 29 77 61 87 69 9 9 29 26 45 38 36 29 70 58 168 145
125 112 485 479 485 494 0 2 8 12 18 22 37 39 82 92 82 96 0 3 10 16 23 29 40
43 77 89 77 97 0 5 4 10 8 12 4 2 30 33 57 70 28 38 53 68 58 68 4 0 7 5 7 11
0 6 13 28 29 48 35 45 231 338 231 346 0 4 11 21 25 39 14 18 25 36 25 40 0 3
12 25 27 49 14 23 40 67 56 97 16 30 37 66 45 80 73 114 269 538 376 810 57
147 178 499 191 554 2 12 14 53 25 91 29 100 90 330 101 384 18 87 20 96 24
111 2 8 7 29 10 45 9 54 14 75 18 83 3 4 8 25 11 47 16 100 28 158 42 197 9
24 17 48 18 53 25 96 127 260 207 333 124 112 300 193 474 217 28 4 66 9 85
12 19 3 152 6 295 8 276 2 291 4 449 41 55 13 112 26 125 29 100 23 397 155
555 247 110 64 297 192 367 250 8 7 40 33 70 58 93 77 199 178 277 265 85 95
87 98 113 135 13 19 26 37 29 40 10 9 77 114 103 161 83 151 110 347 59 426
-4 7 -52 14 -123 18 -63 3 -135 8 -159 11 -25 2 -79 6 -120 9 -41 3 -91 7
-110 9 -19 3 -64 8 -100 11 -36 3 -81 8 -101 11 -38 5 -98 11 -184 19 -27 2
-50 5 -50 5 0 2 -39 8 -95 15 -25 3 -56 7 -70 9 -14 2 -46 7 -70 10 -25 3 -56
8 -70 10 -14 3 -92 16 -175 30 -226 39 -353 63 -364 71 -4 2 -26 6 -50 10 -24
3 -54 10 -67 15 -13 5 -24 8 -24 5 0 -2 -15 1 -32 6 -153 45 -363 21 -543 -61
-45 -21 -174 -93 -200 -112 -190 -138 -399 -347 -543 -541 -29 -40 -59 -80
-67 -89 -7 -9 -19 -27 -26 -40 -6 -13 -15 -25 -19 -28 -3 -3 -16 -22 -29 -42
-12 -21 -26 -38 -30 -38 -4 0 -19 35 -33 78 -50 147 -149 368 -230 517 -49 88
-174 282 -220 339 -115 143 -281 284 -403 341 -120 57 -182 68 -340 65 -384
-7 -735 -2 -885 14 -19 2 -70 7 -112 11 -43 3 -92 8 -110 11 -18 2 -51 6 -73
9 -48 5 -107 13 -155 22 -19 3 -38 6 -42 5 -4 -1 -31 3 -60 8 -29 6 -68 13
-87 15 -18 2 -41 7 -50 9 -9 3 -32 7 -51 10 -19 3 -66 12 -105 22 -38 9 -81
18 -95 20 -14 3 -32 7 -41 10 -13 3 -18 -4 -24 -33z"/>
<path d="M0 9990 c0 -6 9 -30 19 -53 11 -23 19 -44 18 -47 0 -3 4 -14 10 -25
6 -11 14 -47 18 -80 6 -62 7 -335 0 -460 -24 -450 -24 -997 0 -1245 2 -25 6
-72 9 -105 3 -33 8 -76 10 -95 3 -19 7 -55 10 -80 9 -73 16 -121 22 -154 4
-17 8 -40 9 -52 2 -11 8 -45 14 -75 6 -30 13 -68 16 -84 20 -128 137 -534 188
-655 6 -14 11 -27 12 -30 1 -3 9 -22 18 -44 9 -21 17 -42 17 -47 0 -5 4 -17
10 -27 19 -36 110 -235 110 -242 0 -5 3 -10 8 -12 6 -3 74 -127 106 -195 6
-13 14 -23 19 -23 4 0 7 -5 7 -10 0 -18 238 -371 270 -400 3 -3 21 -25 41 -50
113 -140 258 -294 415 -441 51 -47 210 -181 278 -234 22 -16 51 -40 65 -51 14
-12 105 -74 201 -138 96 -64 180 -121 187 -126 7 -6 14 -10 17 -10 2 0 42 -22
88 -49 155 -92 408 -222 558 -289 97 -42 239 -102 330 -137 52 -21 104 -41
115 -45 127 -51 566 -195 655 -215 8 -2 49 -13 90 -25 101 -28 79 -22 310 -78
113 -28 221 -53 240 -57 l35 -7 -40 31 c-67 53 -117 94 -131 108 -7 7 -52 24
-101 37 -206 57 -385 111 -415 127 -10 5 -23 9 -29 9 -16 0 -343 116 -396 141
-24 10 -46 19 -50 19 -8 0 -194 78 -288 121 -27 12 -52 23 -55 23 -24 5 -454
228 -520 269 -19 13 -52 31 -72 42 -21 11 -38 23 -38 28 0 4 -5 5 -10 2 -6 -3
-10 -1 -10 4 0 6 -7 11 -15 11 -8 0 -15 5 -15 10 0 6 -5 10 -10 10 -11 0 -205
126 -228 148 -8 6 -35 26 -60 44 -26 17 -50 36 -54 42 -4 6 -8 7 -8 2 0 -6 -6
-3 -12 5 -7 9 -33 31 -58 50 -51 38 -61 47 -180 150 -71 61 -189 170 -234 216
-96 98 -213 230 -286 323 -28 36 -56 72 -63 80 -54 65 -257 371 -257 386 0 3
-9 18 -19 33 -23 32 -135 251 -175 341 -15 36 -34 79 -41 95 -67 153 -183 505
-209 635 -2 8 -6 29 -10 45 -29 121 -26 106 -56 280 -32 184 -35 212 -45 325
-3 35 -7 76 -10 90 -7 44 -16 191 -20 318 -2 68 -6 126 -8 129 -3 2 -1 18 3
34 5 16 6 29 2 29 -10 0 -4 334 14 727 17 378 9 602 -23 634 -5 5 -32 12 -59
15 -27 2 -63 6 -80 9 -16 2 -59 7 -95 11 -35 3 -67 8 -71 11 -5 2 -8 -1 -8 -7z"/>
<path d="M410 9932 c0 -5 3 -12 6 -15 4 -4 9 -21 11 -39 4 -39 4 -406 -1 -493
-28 -502 -25 -990 9 -1330 18 -191 39 -327 91 -590 8 -38 50 -206 63 -248 5
-18 17 -59 27 -92 9 -33 20 -69 25 -80 4 -11 17 -47 28 -80 18 -55 28 -82 52
-140 4 -11 20 -49 34 -85 15 -36 46 -107 71 -159 24 -51 44 -97 44 -101 0 -4
7 -13 15 -20 9 -7 13 -15 10 -18 -3 -3 -1 -10 4 -16 8 -10 24 -37 73 -126 11
-19 33 -55 49 -80 16 -25 36 -60 46 -77 9 -18 20 -33 25 -33 4 0 8 -4 8 -10 0
-8 17 -33 110 -162 18 -27 37 -48 42 -48 4 0 8 -5 8 -10 0 -33 318 -380 489
-534 58 -52 181 -156 217 -183 16 -12 40 -31 54 -42 55 -43 119 -89 195 -141
44 -30 82 -58 83 -62 2 -5 8 -8 14 -8 6 0 26 -11 44 -25 18 -14 35 -25 38 -25
3 0 40 -22 83 -48 146 -90 184 -112 199 -112 8 0 14 -4 14 -9 0 -5 10 -13 23
-17 12 -4 24 -9 27 -13 5 -6 185 -96 310 -154 282 -132 679 -281 1015 -383 50
-14 97 -29 105 -32 15 -4 2 8 -94 91 -27 23 -74 66 -105 95 -52 49 -131 101
-131 86 0 -3 -11 1 -25 10 -13 9 -29 16 -35 16 -6 0 -32 9 -58 21 -26 12 -56
25 -67 30 -202 87 -222 96 -395 182 -154 76 -207 104 -320 171 -25 15 -53 29
-62 33 -10 3 -18 9 -18 14 0 5 -4 9 -10 9 -27 0 -420 268 -540 369 -14 11 -30
24 -35 28 -15 12 -82 69 -149 127 -112 97 -335 324 -416 425 -19 23 -43 53
-54 64 -40 46 -166 218 -166 227 0 4 -3 10 -8 12 -8 3 -92 125 -92 134 0 3
-11 20 -25 38 -14 18 -25 37 -25 41 0 5 -6 16 -14 24 -22 26 -138 249 -201
386 -89 196 -188 482 -241 695 -17 72 -54 235 -58 257 -2 15 -5 28 -6 28 -1 0
-3 14 -5 30 -6 48 -14 98 -19 121 -2 12 -7 45 -11 74 -4 29 -9 62 -11 74 -4
21 -14 114 -19 176 -8 103 -17 223 -21 285 -5 86 -4 639 1 755 2 47 7 164 11
260 4 96 8 227 8 290 l1 114 -40 8 c-22 5 -67 13 -100 18 -33 5 -69 11 -81 14
-54 12 -124 16 -124 8z"/>
<path d="M843 9756 c-1 -61 -4 -158 -7 -216 -16 -368 -19 -491 -19 -710 -1
-215 7 -438 18 -565 2 -22 6 -67 9 -100 5 -58 13 -124 21 -175 2 -14 6 -47 10
-73 3 -26 10 -71 16 -100 5 -29 12 -70 15 -92 3 -22 8 -47 10 -55 3 -8 8 -26
10 -40 10 -61 53 -231 87 -345 16 -55 32 -110 34 -123 3 -12 9 -25 14 -28 5
-3 9 -12 9 -20 0 -16 60 -180 90 -249 10 -22 28 -65 41 -95 65 -155 199 -397
318 -574 25 -38 51 -76 56 -85 6 -9 12 -18 15 -21 3 -3 28 -34 54 -69 62 -83
58 -77 112 -141 145 -171 239 -268 455 -465 24 -23 91 -78 149 -123 58 -46
115 -91 126 -100 12 -9 28 -21 36 -27 348 -235 493 -322 756 -454 158 -80 447
-211 464 -211 7 0 -5 15 -67 84 -6 6 -30 36 -55 66 -25 30 -53 64 -62 74 -10
11 -18 23 -18 27 0 4 -46 34 -102 65 -57 31 -115 65 -129 75 -14 10 -29 16
-33 12 -3 -3 -6 -2 -6 4 0 5 -18 18 -40 28 -22 10 -40 22 -40 27 0 4 -5 8 -10
8 -12 0 -296 190 -327 219 -12 12 -25 21 -28 21 -10 0 -228 175 -310 249 -121
110 -369 366 -437 452 -14 19 -36 45 -48 59 -12 14 -29 37 -38 53 -9 15 -19
27 -23 27 -9 0 -203 284 -229 335 -6 11 -24 43 -40 70 -57 95 -170 321 -213
425 -10 25 -23 54 -28 65 -30 66 -136 374 -145 424 -3 14 -7 28 -10 33 -3 5
-7 18 -10 31 -4 25 -8 39 -29 122 -9 33 -17 71 -19 85 -2 14 -9 43 -14 65 -6
22 -13 58 -17 80 -3 23 -8 52 -11 65 -8 39 -12 62 -18 105 -3 22 -8 51 -10 65
-3 14 -7 52 -11 85 -3 33 -8 74 -10 90 -4 40 -13 144 -20 235 -5 64 -16 364
-16 410 0 13 0 73 0 105 -1 37 11 416 17 535 3 80 7 185 8 235 l1 89 -85 19
c-47 9 -94 20 -105 22 -11 3 -40 8 -65 13 l-46 9 -1 -111z"/>
<path d="M1239 9778 c-4 -9 -8 -73 -14 -253 -4 -110 -9 -229 -11 -265 -10
-197 -4 -682 12 -870 3 -41 8 -95 10 -120 1 -25 5 -58 7 -75 3 -16 8 -57 12
-90 9 -78 15 -124 20 -155 3 -14 8 -43 11 -65 3 -22 12 -71 21 -110 8 -38 17
-85 19 -104 2 -19 7 -38 10 -42 5 -9 11 -34 19 -74 15 -85 110 -391 127 -412
6 -7 8 -13 4 -13 -3 0 1 -17 10 -37 9 -21 17 -42 18 -48 2 -5 8 -21 13 -35 6
-14 20 -47 31 -75 21 -54 87 -198 104 -229 6 -11 27 -52 48 -91 46 -87 63
-118 70 -125 3 -3 12 -18 20 -35 8 -16 18 -34 23 -40 4 -5 40 -59 80 -120 89
-136 119 -177 227 -310 192 -237 468 -499 730 -693 52 -39 100 -75 105 -79 11
-9 198 -132 260 -171 22 -14 52 -33 67 -44 15 -10 30 -18 34 -18 3 0 19 -9 35
-21 36 -26 38 -8 4 37 -14 18 -25 37 -25 42 0 6 -4 12 -8 14 -4 2 -29 39 -54
83 -26 44 -51 85 -55 90 -4 6 -24 42 -43 80 -19 39 -38 72 -42 73 -5 2 -8 9
-8 15 0 7 -15 23 -32 37 -115 90 -395 357 -509 485 -56 63 -205 250 -225 281
-10 16 -21 31 -24 34 -16 13 -130 188 -130 198 0 7 -4 12 -9 12 -5 0 -14 14
-21 30 -7 17 -16 30 -20 30 -4 0 -10 8 -13 18 -3 9 -20 42 -38 72 -38 66 -169
326 -169 337 0 5 -6 20 -14 34 -7 15 -32 75 -55 135 -23 60 -46 117 -51 126
-6 10 -10 25 -10 33 0 8 -4 23 -9 33 -5 9 -15 37 -21 62 -7 25 -16 54 -21 65
-7 18 -60 214 -73 276 -38 171 -68 334 -81 449 -2 14 -5 39 -8 55 -3 17 -9 64
-12 105 -4 41 -8 88 -10 104 -18 144 -25 733 -14 1145 l4 145 -60 18 c-33 10
-69 20 -80 22 -22 4 -140 34 -167 42 -10 3 -19 4 -19 2z"/>
<path d="M1653 9593 c-1 -38 -4 -156 -8 -263 -11 -300 -6 -682 10 -830 2 -25
7 -83 11 -129 3 -47 8 -93 10 -104 2 -11 6 -43 9 -71 8 -69 15 -115 22 -151 3
-16 7 -41 9 -55 8 -55 14 -89 24 -136 7 -27 13 -60 15 -74 2 -14 18 -79 35
-145 18 -66 33 -127 35 -135 2 -8 4 -15 5 -15 1 0 3 -8 5 -17 5 -29 75 -242
86 -260 5 -10 9 -22 9 -28 0 -6 9 -29 19 -53 17 -38 32 -74 36 -87 6 -22 80
-177 130 -275 81 -158 107 -203 177 -309 32 -49 58 -92 58 -97 0 -4 4 -9 8
-11 5 -1 23 -25 42 -53 31 -46 161 -216 185 -241 5 -6 35 -39 65 -74 87 -100
359 -370 373 -370 3 0 -12 39 -33 88 -44 103 -52 124 -56 137 -1 6 -24 69 -49
140 -26 72 -48 137 -50 145 -2 8 -17 63 -34 122 -26 94 -39 120 -104 215 -74
108 -143 219 -187 303 -14 25 -31 53 -39 63 -8 9 -11 17 -6 17 4 0 2 6 -4 14
-16 19 -75 141 -133 276 -73 168 -167 439 -198 570 -5 19 -14 55 -20 80 -7 25
-14 54 -16 65 -2 11 -6 30 -8 43 -3 13 -8 33 -12 44 -3 11 -7 30 -9 41 -2 12
-8 49 -14 82 -6 33 -14 76 -16 95 -3 19 -8 46 -11 60 -3 14 -7 41 -9 60 -2 19
-7 53 -10 75 -3 22 -7 63 -10 90 -2 28 -7 75 -10 105 -12 121 -28 405 -25 450
1 14 1 32 1 40 -2 41 0 329 3 426 l3 112 -141 46 c-77 25 -148 46 -156 46 -12
0 -16 -14 -17 -67z"/>
<path d="M2049 9413 c-4 -376 2 -625 17 -793 3 -30 7 -77 8 -105 2 -27 7 -70
10 -95 4 -25 11 -83 18 -130 6 -47 12 -94 14 -105 3 -11 7 -36 9 -55 3 -19 8
-46 11 -60 6 -24 9 -42 18 -95 3 -13 7 -28 9 -33 3 -4 8 -26 11 -48 4 -23 11
-55 16 -72 5 -18 6 -32 3 -32 -3 0 0 -7 7 -15 7 -8 10 -15 6 -15 -3 0 -1 -12
5 -27 6 -16 13 -39 16 -53 2 -14 16 -60 30 -103 14 -43 26 -84 27 -90 3 -20
102 -276 133 -347 53 -119 125 -262 190 -375 77 -137 119 -197 109 -160 -8 28
-38 204 -41 240 -2 17 -6 50 -9 75 -20 164 -28 298 -30 530 -2 182 -5 211 -23
260 -41 104 -112 392 -138 555 -2 11 -8 45 -14 75 -15 74 -25 150 -36 250 -3
30 -8 73 -10 95 -15 132 -26 318 -30 534 -2 101 -7 187 -12 191 -4 4 -48 23
-98 42 -49 19 -99 39 -110 43 -11 5 -23 9 -27 10 -5 2 -10 4 -13 5 -3 1 -9 3
-14 4 -5 0 -13 4 -17 9 -4 4 -16 7 -26 7 -16 0 -18 -11 -19 -117z"/>
</g>
</svg>
